<svg width="512" height="512" viewBox="0 0 512 512" fill="none" xmlns="http://www.w3.org/2000/svg">
<g clip-path="url(#clip0_1_2)">
<rect width="512" height="512" fill="#EBFF00"/>
<path d="M49.0996 81.5176H359.402L376.98 162.084H359.402C346.87 141.088 333.768 125.707 320.096 115.941C306.424 106.176 293.484 100.316 281.277 98.3633C269.233 96.4102 253.445 95.2708 233.914 94.9453V372.533C233.914 383.275 235.623 391.495 239.041 397.191C242.459 402.725 248.074 406.55 255.887 408.666C263.699 410.782 274.604 412.084 288.602 412.572V426H117.459V412.572C131.619 412.247 142.443 411.189 149.93 409.398C157.579 407.445 163.276 403.539 167.02 397.68C170.926 391.658 172.879 382.299 172.879 369.604V94.9453C155.301 95.1081 140.001 96.8984 126.98 100.316C113.96 103.572 103.055 108.048 94.2656 113.744C85.4766 119.441 78.1523 125.544 72.293 132.055C66.5964 138.402 58.1328 148.412 46.9023 162.084H32.0098L49.0996 81.5176ZM349.393 134.008L338.406 94.9453H292.508C304.878 98.8516 315.213 103.897 323.514 110.082C331.814 116.267 340.441 124.242 349.393 134.008ZM196.561 363.988V123.998C196.561 114.558 195.421 107.478 193.143 102.758C191.027 98.0378 186.958 95.4336 180.936 94.9453V372.533C180.936 382.624 179.715 390.681 177.273 396.703C174.832 402.725 170.275 408.015 163.602 412.572H168.973C180.854 412.572 188.423 408.829 191.678 401.342C194.933 393.855 196.561 381.404 196.561 363.988ZM94.5098 94.9453H54.959L45.4375 136.449C53.7383 125.544 60.9811 117.488 67.166 112.279C73.3509 106.908 82.4655 101.13 94.5098 94.9453Z" fill="black"/>
<path d="M297.77 293.578V288.207H362.223V293.578C356.559 293.839 352.555 294.294 350.211 294.945C347.867 295.531 346.044 297.126 344.742 299.73C343.44 302.27 342.789 306.501 342.789 312.426V435.18C342.789 442.927 341.389 449.73 338.59 455.59C335.79 461.449 331.786 465.974 326.578 469.164C321.37 472.419 315.38 474.047 308.609 474.047C302.229 474.047 296.988 472.257 292.887 468.676C288.85 465.16 286.832 460.993 286.832 456.176C286.832 453.246 287.711 450.609 289.469 448.266C291.227 445.987 293.603 444.848 296.598 444.848C299.658 444.848 302.197 446.052 304.215 448.461C306.298 450.935 307.438 454.125 307.633 458.031C307.763 461.286 308.089 463.858 308.609 465.746C309.13 467.634 310.335 468.578 312.223 468.578C316.194 468.578 318.18 463.858 318.18 454.418V315.355C318.18 310.082 317.887 306.078 317.301 303.344C316.78 300.609 315.803 298.624 314.371 297.387C313.004 296.15 311.116 295.303 308.707 294.848C306.298 294.327 302.652 293.904 297.77 293.578ZM327.848 448.168V313.598C327.848 305.915 327.197 300.674 325.895 297.875C324.658 295.01 321.565 293.578 316.617 293.578H314.566C317.236 294.815 319.026 296.54 319.938 298.754C320.914 300.902 321.402 303.995 321.402 308.031V453.832C321.402 459.366 320.328 464.281 318.18 468.578C322.216 466.82 324.82 464.411 325.992 461.352C327.229 458.292 327.848 453.897 327.848 448.168ZM303.629 454.418C302.001 450.251 299.723 448.168 296.793 448.168C294.84 448.168 293.212 448.982 291.91 450.609C290.608 452.237 289.957 454.158 289.957 456.371C289.957 459.301 291.129 462.035 293.473 464.574C295.816 467.178 299.202 469.132 303.629 470.434C300.569 467.243 298.486 464.9 297.379 463.402C296.337 461.97 295.816 460.115 295.816 457.836C295.816 455.622 296.663 454.19 298.355 453.539C300.113 452.888 301.871 453.181 303.629 454.418ZM380.191 376.391H386.637C390.217 386.677 394.514 395.336 399.527 402.367C404.605 409.333 410.107 414.509 416.031 417.895C422.021 421.28 428.271 422.973 434.781 422.973C442.919 422.973 449.885 420.434 455.68 415.355C461.474 410.277 464.371 403.767 464.371 395.824C464.371 388.402 462.451 382.641 458.609 378.539C454.768 374.372 450.178 371.475 444.84 369.848C439.501 368.155 432.47 366.592 423.746 365.16C415.022 363.728 408.837 362.393 405.191 361.156C399.527 359.203 394.71 356.534 390.738 353.148C386.767 349.698 383.74 345.596 381.656 340.844C379.638 336.026 378.629 330.883 378.629 325.414C378.629 320.206 379.54 315.193 381.363 310.375C383.186 305.557 385.758 301.293 389.078 297.582C392.398 293.871 396.435 290.941 401.188 288.793C406.005 286.645 411.344 285.57 417.203 285.57C421.435 285.57 426.611 286.189 432.73 287.426C438.915 288.598 443.408 289.184 446.207 289.184C449.723 289.184 453.043 288.402 456.168 286.84H463.59L467.789 326.977H460.953C454.573 314.997 447.867 305.883 440.836 299.633C433.87 293.318 425.667 290.16 416.227 290.16C411.539 290.16 407.177 291.267 403.141 293.48C399.104 295.629 395.849 298.624 393.375 302.465C390.966 306.306 389.762 310.538 389.762 315.16C389.762 321.671 391.975 326.651 396.402 330.102C400.829 333.552 407.372 336.156 416.031 337.914C424.755 339.672 432.535 341.169 439.371 342.406C446.272 343.643 451.741 345.238 455.777 347.191C463.199 350.837 468.961 355.883 473.062 362.328C477.164 368.773 479.215 376.065 479.215 384.203C479.215 392.016 477.327 399.307 473.551 406.078C469.775 412.849 464.469 418.285 457.633 422.387C450.797 426.423 443.18 428.441 434.781 428.441C430.029 428.441 426.448 428.083 424.039 427.367C421.63 426.651 417.496 425.251 411.637 423.168C405.777 421.085 401.285 420.043 398.16 420.043C392.952 420.043 388.818 422.029 385.758 426H380.191V376.391ZM457.047 313.207L453.824 294.555C451.676 295.271 449.527 295.629 447.379 295.629C445.035 295.629 442.496 295.271 439.762 294.555C442.366 296.247 444.645 298.135 446.598 300.219C448.551 302.302 450.602 304.809 452.75 307.738C454.898 310.668 456.331 312.491 457.047 313.207ZM383.414 394.555V420.629C385.302 418.155 387.027 416.56 388.59 415.844C390.217 415.128 392.691 414.835 396.012 414.965C393.863 412.426 392.301 410.57 391.324 409.398C390.413 408.161 389.241 406.371 387.809 404.027C386.441 401.618 384.977 398.461 383.414 394.555ZM383.414 313.988C382.307 318.936 381.754 322.94 381.754 326C381.754 329.451 382.34 332.934 383.512 336.449C384.684 339.9 386.409 343.188 388.688 346.312C390.966 349.372 393.538 351.879 396.402 353.832C400.243 356.436 404.475 358.292 409.098 359.398C413.72 360.44 420.458 361.71 429.312 363.207C438.232 364.639 444.384 366.039 447.77 367.406C454.02 369.685 458.87 373.168 462.32 377.855C465.836 382.543 467.594 388.044 467.594 394.359C467.594 399.047 466.259 403.995 463.59 409.203C468.928 403.669 471.598 397.191 471.598 389.77C471.598 382.087 469.612 376.065 465.641 371.703C461.734 367.276 456.852 364.021 450.992 361.938C445.198 359.789 437.255 357.836 427.164 356.078C417.073 354.255 411.897 353.311 411.637 353.246C402.392 350.837 395.361 346.671 390.543 340.746C385.79 334.822 383.414 327.986 383.414 320.238C383.414 318.806 383.382 317.602 383.316 316.625C383.316 315.648 383.349 314.77 383.414 313.988Z" fill="black"/>
</g>
<defs>
<clipPath id="clip0_1_2">
<rect width="512" height="512" fill="white"/>
</clipPath>
</defs>
</svg>
